<svg xmlns="http://www.w3.org/2000/svg" xmlns:xlink="http://www.w3.org/1999/xlink" width="500" zoomAndPan="magnify" viewBox="0 0 375 374.999991" height="500" preserveAspectRatio="xMidYMid meet" version="1.0"><defs><clipPath id="b0511d3d34"><path d="M 9.460938 9.460938 L 365.710938 9.460938 L 365.710938 365.710938 L 9.460938 365.710938 Z M 9.460938 9.460938 " clip-rule="nonzero"/></clipPath><clipPath id="ad06e607ad"><path d="M 37.5 103.59375 L 336 103.59375 L 336 202 L 37.5 202 Z M 37.5 103.59375 " clip-rule="nonzero"/></clipPath><clipPath id="0aba922b8c"><path d="M 93 162 L 336.75 162 L 336.75 246 L 93 246 Z M 93 162 " clip-rule="nonzero"/></clipPath><clipPath id="8f3a8487d1"><path d="M 53 220 L 67 220 L 67 271.59375 L 53 271.59375 Z M 53 220 " clip-rule="nonzero"/></clipPath></defs><g clip-path="url(#b0511d3d34)"><path fill="#000000" d="M 365.710938 187.585938 C 365.710938 190.5 365.636719 193.414062 365.496094 196.324219 C 365.351562 199.234375 365.136719 202.144531 364.851562 205.042969 C 364.566406 207.945312 364.210938 210.835938 363.78125 213.722656 C 363.355469 216.605469 362.855469 219.476562 362.285156 222.335938 C 361.71875 225.195312 361.078125 228.039062 360.371094 230.867188 C 359.664062 233.691406 358.886719 236.5 358.039062 239.292969 C 357.191406 242.082031 356.277344 244.847656 355.296875 247.59375 C 354.316406 250.335938 353.265625 253.058594 352.152344 255.75 C 351.035156 258.441406 349.855469 261.109375 348.609375 263.742188 C 347.359375 266.378906 346.050781 268.980469 344.675781 271.550781 C 343.300781 274.121094 341.867188 276.660156 340.367188 279.160156 C 338.867188 281.660156 337.308594 284.121094 335.691406 286.546875 C 334.070312 288.96875 332.390625 291.351562 330.65625 293.695312 C 328.917969 296.035156 327.125 298.332031 325.277344 300.585938 C 323.425781 302.839844 321.523438 305.046875 319.566406 307.207031 C 317.609375 309.367188 315.597656 311.476562 313.539062 313.539062 C 311.476562 315.597656 309.367188 317.609375 307.207031 319.566406 C 305.046875 321.523438 302.839844 323.425781 300.585938 325.277344 C 298.332031 327.125 296.035156 328.917969 293.691406 330.65625 C 291.351562 332.390625 288.96875 334.070312 286.546875 335.691406 C 284.121094 337.308594 281.660156 338.867188 279.160156 340.367188 C 276.660156 341.867188 274.121094 343.300781 271.550781 344.675781 C 268.980469 346.050781 266.378906 347.359375 263.742188 348.609375 C 261.105469 349.855469 258.441406 351.035156 255.75 352.152344 C 253.054688 353.265625 250.335938 354.316406 247.59375 355.296875 C 244.847656 356.277344 242.082031 357.191406 239.292969 358.039062 C 236.5 358.886719 233.691406 359.664062 230.867188 360.371094 C 228.039062 361.078125 225.195312 361.71875 222.335938 362.285156 C 219.476562 362.855469 216.605469 363.355469 213.722656 363.78125 C 210.835938 364.210938 207.945312 364.566406 205.042969 364.851562 C 202.144531 365.136719 199.234375 365.351562 196.324219 365.496094 C 193.414062 365.636719 190.5 365.710938 187.585938 365.710938 C 184.667969 365.710938 181.757812 365.636719 178.84375 365.496094 C 175.933594 365.351562 173.027344 365.136719 170.125 364.851562 C 167.222656 364.566406 164.332031 364.210938 161.449219 363.78125 C 158.5625 363.355469 155.691406 362.855469 152.832031 362.285156 C 149.976562 361.71875 147.132812 361.078125 144.304688 360.371094 C 141.476562 359.664062 138.667969 358.886719 135.878906 358.039062 C 133.085938 357.191406 130.320312 356.277344 127.574219 355.296875 C 124.832031 354.316406 122.113281 353.265625 119.417969 352.152344 C 116.726562 351.035156 114.0625 349.855469 111.425781 348.609375 C 108.789062 347.359375 106.1875 346.050781 103.617188 344.675781 C 101.046875 343.300781 98.511719 341.867188 96.011719 340.367188 C 93.507812 338.867188 91.046875 337.308594 88.625 335.691406 C 86.199219 334.070312 83.816406 332.390625 81.476562 330.65625 C 79.132812 328.917969 76.835938 327.125 74.582031 325.277344 C 72.328125 323.425781 70.121094 321.523438 67.964844 319.566406 C 65.804688 317.609375 63.691406 315.597656 61.632812 313.539062 C 59.570312 311.476562 57.558594 309.367188 55.601562 307.207031 C 53.644531 305.046875 51.742188 302.839844 49.890625 300.585938 C 48.042969 298.332031 46.25 296.035156 44.511719 293.691406 C 42.777344 291.351562 41.097656 288.96875 39.480469 286.546875 C 37.859375 284.121094 36.300781 281.660156 34.800781 279.160156 C 33.304688 276.660156 31.867188 274.121094 30.492188 271.550781 C 29.117188 268.980469 27.808594 266.378906 26.5625 263.742188 C 25.316406 261.105469 24.132812 258.441406 23.019531 255.75 C 21.902344 253.054688 20.855469 250.335938 19.871094 247.59375 C 18.890625 244.847656 17.976562 242.082031 17.128906 239.292969 C 16.285156 236.5 15.507812 233.691406 14.796875 230.867188 C 14.089844 228.039062 13.449219 225.195312 12.882812 222.335938 C 12.3125 219.476562 11.816406 216.605469 11.386719 213.722656 C 10.960938 210.835938 10.601562 207.945312 10.316406 205.042969 C 10.03125 202.144531 9.816406 199.234375 9.675781 196.324219 C 9.53125 193.414062 9.460938 190.5 9.460938 187.585938 C 9.460938 184.667969 9.53125 181.757812 9.675781 178.84375 C 9.816406 175.933594 10.03125 173.027344 10.316406 170.125 C 10.601562 167.222656 10.960938 164.332031 11.386719 161.449219 C 11.816406 158.566406 12.3125 155.691406 12.882812 152.832031 C 13.449219 149.976562 14.089844 147.132812 14.796875 144.304688 C 15.507812 141.476562 16.285156 138.667969 17.128906 135.878906 C 17.976562 133.085938 18.890625 130.320312 19.871094 127.574219 C 20.855469 124.832031 21.902344 122.113281 23.019531 119.417969 C 24.132812 116.726562 25.316406 114.0625 26.5625 111.425781 C 27.808594 108.789062 29.117188 106.1875 30.492188 103.617188 C 31.867188 101.046875 33.304688 98.511719 34.800781 96.011719 C 36.300781 93.507812 37.859375 91.046875 39.480469 88.625 C 41.097656 86.199219 42.777344 83.816406 44.511719 81.476562 C 46.25 79.132812 48.042969 76.835938 49.890625 74.582031 C 51.742188 72.328125 53.644531 70.121094 55.601562 67.964844 C 57.558594 65.804688 59.570312 63.691406 61.632812 61.632812 C 63.691406 59.570312 65.804688 57.558594 67.964844 55.601562 C 70.121094 53.644531 72.328125 51.742188 74.582031 49.890625 C 76.835938 48.042969 79.132812 46.25 81.476562 44.511719 C 83.816406 42.777344 86.199219 41.097656 88.625 39.480469 C 91.046875 37.859375 93.507812 36.300781 96.011719 34.800781 C 98.511719 33.304688 101.046875 31.867188 103.617188 30.492188 C 106.1875 29.117188 108.789062 27.808594 111.425781 26.5625 C 114.0625 25.316406 116.726562 24.132812 119.417969 23.019531 C 122.113281 21.902344 124.832031 20.855469 127.574219 19.871094 C 130.320312 18.890625 133.085938 17.976562 135.878906 17.128906 C 138.667969 16.285156 141.476562 15.507812 144.304688 14.796875 C 147.132812 14.089844 149.976562 13.449219 152.832031 12.882812 C 155.691406 12.3125 158.5625 11.816406 161.449219 11.386719 C 164.332031 10.960938 167.222656 10.601562 170.125 10.316406 C 173.027344 10.03125 175.933594 9.816406 178.84375 9.675781 C 181.757812 9.53125 184.667969 9.460938 187.585938 9.460938 C 190.5 9.460938 193.414062 9.53125 196.324219 9.675781 C 199.234375 9.816406 202.144531 10.03125 205.042969 10.316406 C 207.945312 10.601562 210.835938 10.960938 213.722656 11.386719 C 216.605469 11.816406 219.476562 12.3125 222.335938 12.882812 C 225.195312 13.449219 228.039062 14.089844 230.867188 14.796875 C 233.691406 15.507812 236.5 16.285156 239.292969 17.128906 C 242.082031 17.976562 244.847656 18.890625 247.59375 19.871094 C 250.335938 20.855469 253.058594 21.902344 255.75 23.019531 C 258.441406 24.132812 261.105469 25.316406 263.742188 26.5625 C 266.378906 27.808594 268.980469 29.117188 271.550781 30.492188 C 274.121094 31.867188 276.660156 33.304688 279.160156 34.800781 C 281.660156 36.300781 284.121094 37.859375 286.546875 39.480469 C 288.96875 41.097656 291.351562 42.777344 293.691406 44.511719 C 296.035156 46.25 298.332031 48.042969 300.585938 49.890625 C 302.839844 51.742188 305.046875 53.644531 307.207031 55.601562 C 309.367188 57.558594 311.476562 59.570312 313.539062 61.632812 C 315.597656 63.691406 317.609375 65.804688 319.566406 67.964844 C 321.523438 70.121094 323.425781 72.328125 325.277344 74.582031 C 327.125 76.835938 328.917969 79.132812 330.65625 81.476562 C 332.390625 83.816406 334.070312 86.199219 335.691406 88.625 C 337.308594 91.046875 338.867188 93.507812 340.367188 96.011719 C 341.867188 98.511719 343.300781 101.046875 344.675781 103.617188 C 346.050781 106.1875 347.359375 108.789062 348.609375 111.425781 C 349.855469 114.0625 351.035156 116.726562 352.152344 119.417969 C 353.265625 122.113281 354.316406 124.832031 355.296875 127.574219 C 356.277344 130.320312 357.191406 133.085938 358.039062 135.878906 C 358.886719 138.667969 359.664062 141.476562 360.371094 144.304688 C 361.078125 147.132812 361.71875 149.976562 362.285156 152.832031 C 362.855469 155.691406 363.355469 158.566406 363.78125 161.449219 C 364.210938 164.332031 364.566406 167.222656 364.851562 170.125 C 365.136719 173.027344 365.351562 175.933594 365.496094 178.84375 C 365.636719 181.757812 365.710938 184.667969 365.710938 187.585938 Z M 365.710938 187.585938 " fill-opacity="1" fill-rule="nonzero"/></g><g clip-path="url(#ad06e607ad)"><path fill="#ffffff" d="M 159.761719 107.285156 C 191.085938 113.089844 215.183594 118.964844 232.050781 124.90625 L 232.0625 124.914062 C 263.398438 135.679688 287.371094 144.226562 303.980469 150.558594 C 294.449219 149.042969 286.511719 147.871094 280.167969 147.042969 L 280.121094 147.039062 L 200.605469 138.761719 L 200.578125 138.761719 C 188.042969 137.648438 179.152344 136.921875 173.90625 136.585938 L 173.898438 136.585938 C 167.097656 136.183594 152.40625 135.546875 129.832031 134.683594 L 129.796875 134.679688 C 128.082031 134.648438 126.667969 134.5 125.546875 134.234375 L 125.523438 134.234375 C 125.660156 134.066406 125.824219 133.878906 126.011719 133.671875 L 126 133.671875 C 137.839844 122.75 144.621094 116.625 146.351562 115.296875 L 146.394531 115.265625 C 152.6875 110.125 157.136719 107.464844 159.738281 107.285156 Z M 97.484375 154.601562 C 97.367188 154.96875 97.140625 155.234375 96.8125 155.402344 C 97.082031 155.21875 97.296875 154.964844 97.433594 154.660156 C 97.445312 154.640625 97.453125 154.621094 97.460938 154.601562 Z M 314.316406 154.597656 C 322.050781 157.707031 327.257812 160.054688 329.9375 161.640625 L 329.910156 161.640625 C 254.714844 169.773438 166.773438 181.152344 66.089844 195.78125 C 56.160156 197.109375 49.035156 197.917969 44.714844 198.203125 C 53.871094 191.113281 67.753906 178.796875 86.367188 161.246094 L 86.359375 161.246094 C 90.746094 157.738281 93.949219 155.890625 95.972656 155.703125 C 96.210938 155.683594 96.4375 155.613281 96.640625 155.507812 L 96.617188 155.507812 C 99.160156 155.109375 113.894531 154.984375 140.820312 155.125 C 174.632812 155.300781 227.667969 155.902344 299.925781 156.925781 L 299.9375 156.925781 C 300.183594 156.925781 300.421875 156.929688 300.664062 156.929688 C 306.519531 156.960938 310.535156 156.703125 312.707031 156.164062 C 312.894531 156.117188 313.074219 156.039062 313.238281 155.933594 C 313.246094 155.929688 313.253906 155.925781 313.261719 155.917969 C 313.804688 155.5625 314.148438 155.125 314.289062 154.597656 Z M 159.839844 103.714844 C 156.453125 103.796875 151.21875 106.726562 144.140625 112.503906 C 142.261719 113.960938 135.410156 120.144531 123.585938 131.050781 L 123.480469 131.15625 C 122.46875 132.261719 121.839844 133.214844 121.597656 134.011719 C 121.265625 135.105469 121.480469 136 122.246094 136.703125 C 122.566406 136.996094 122.960938 137.207031 123.429688 137.335938 C 123.496094 137.355469 123.566406 137.371094 123.632812 137.386719 L 123.609375 137.386719 C 125.175781 137.914062 127.21875 138.199219 129.730469 138.242188 L 129.722656 138.242188 C 152.257812 139.109375 166.914062 139.742188 173.6875 140.144531 C 178.90625 140.476562 187.765625 141.199219 200.261719 142.308594 L 279.753906 150.582031 L 279.75 150.582031 C 284.984375 151.265625 291.316406 152.1875 298.746094 153.34375 C 229.058594 152.359375 177.28125 151.777344 143.414062 151.601562 C 113.578125 151.445312 97.644531 151.601562 95.609375 152.070312 C 95.429688 152.113281 95.265625 152.167969 95.117188 152.230469 L 95.089844 152.230469 C 92.402344 152.691406 88.75 154.769531 84.132812 158.464844 L 84.023438 158.558594 C 62.398438 178.953125 47.222656 192.226562 38.503906 198.382812 C 37.699219 198.949219 37.507812 200.058594 38.074219 200.863281 C 38.367188 201.28125 38.808594 201.535156 39.277344 201.601562 L 39.253906 201.601562 C 39.398438 201.671875 39.558594 201.722656 39.726562 201.75 C 40.148438 201.820312 40.734375 201.855469 41.484375 201.859375 C 45.378906 201.878906 53.746094 201.03125 66.582031 199.308594 L 66.601562 199.304688 C 168.179688 184.546875 256.773438 173.097656 332.386719 164.957031 C 332.875 164.90625 333.289062 164.816406 333.636719 164.691406 C 334.859375 164.25 335.410156 163.449219 335.289062 162.289062 L 335.289062 162.285156 C 335.238281 161.832031 335.058594 161.398438 334.742188 160.976562 C 331.664062 156.882812 297.828125 143.742188 233.234375 121.546875 C 216.15625 115.53125 191.8125 109.59375 160.207031 103.746094 Z M 159.839844 103.714844 " fill-opacity="1" fill-rule="nonzero"/></g><g clip-path="url(#0aba922b8c)"><path fill="#ffffff" d="M 334.769531 162.46875 C 334.390625 162.464844 334.011719 162.582031 333.691406 162.824219 C 331.769531 164.1875 312.105469 171.734375 274.699219 185.460938 L 274.6875 185.460938 C 247.390625 193.835938 191.4375 212.574219 106.828125 241.679688 C 105.9375 241.53125 105.136719 239.859375 104.4375 236.65625 L 104.425781 236.65625 C 101.640625 209.878906 99.046875 195.222656 96.636719 192.679688 C 96.535156 192.570312 96.425781 192.472656 96.316406 192.382812 C 95.988281 192.121094 95.597656 191.992188 95.210938 191.988281 C 94.6875 191.988281 94.164062 192.214844 93.8125 192.65625 C 93.195312 193.425781 93.320312 194.546875 94.085938 195.160156 L 94.082031 195.160156 C 95.929688 197.226562 98.195312 211.179688 100.882812 237.023438 L 100.910156 237.214844 C 102.054688 242.558594 104.054688 245.238281 106.910156 245.253906 C 107.011719 245.253906 107.113281 245.25 107.214844 245.242188 L 107.6875 245.148438 C 192.527344 215.96875 248.574219 197.199219 275.832031 188.835938 L 275.925781 188.808594 C 313.644531 174.964844 333.589844 167.269531 335.757812 165.726562 C 335.785156 165.707031 335.808594 165.691406 335.832031 165.671875 L 335.835938 165.671875 C 336.621094 165.078125 336.773438 163.960938 336.179688 163.175781 C 335.832031 162.714844 335.304688 162.46875 334.769531 162.46875 Z M 334.769531 162.46875 " fill-opacity="1" fill-rule="nonzero"/></g><path fill="#ffffff" d="M 124.4375 135.1875 C 123.625 135.183594 122.886719 135.742188 122.695312 136.570312 C 122.625 136.878906 122.550781 137.308594 122.480469 137.859375 L 122.476562 137.902344 C 122.183594 140.699219 121.953125 142.574219 121.792969 143.535156 C 121.140625 147.269531 120.597656 150.433594 120.167969 153.03125 C 120.007812 154 120.664062 154.917969 121.636719 155.078125 C 121.730469 155.09375 121.824219 155.101562 121.917969 155.105469 C 122.777344 155.109375 123.539062 154.488281 123.683594 153.613281 C 124.109375 151.042969 124.648438 147.882812 125.304688 144.136719 L 125.304688 144.128906 C 125.480469 143.097656 125.714844 141.160156 126.015625 138.316406 L 126.011719 138.316406 C 126.070312 137.882812 126.121094 137.566406 126.164062 137.371094 C 126.386719 136.414062 125.789062 135.457031 124.832031 135.234375 C 124.699219 135.203125 124.566406 135.1875 124.4375 135.1875 Z M 124.4375 135.1875 " fill-opacity="1" fill-rule="nonzero"/><path fill="#ffffff" d="M 80.078125 221.324219 C 79.332031 221.320312 78.632812 221.792969 78.382812 222.539062 C 77.496094 225.175781 76.734375 228.15625 76.097656 231.488281 C 75.832031 232.878906 75.578125 234.667969 75.34375 236.863281 L 75.34375 236.867188 C 75.246094 237.820312 75.203125 238.835938 75.214844 239.90625 L 75.214844 239.914062 C 75.285156 243.886719 75.59375 247.5 76.152344 250.753906 L 76.148438 250.753906 C 76.363281 252.34375 77.210938 254.816406 78.699219 258.171875 C 78.992188 258.832031 79.640625 259.230469 80.320312 259.230469 C 80.5625 259.234375 80.8125 259.183594 81.050781 259.078125 C 81.949219 258.679688 82.355469 257.628906 81.957031 256.726562 C 80.667969 253.816406 79.917969 251.726562 79.707031 250.464844 L 79.6875 250.464844 L 79.664062 250.152344 C 79.136719 247.078125 78.84375 243.648438 78.777344 239.863281 C 78.765625 238.925781 78.804688 238.054688 78.886719 237.238281 C 79.109375 235.144531 79.347656 233.453125 79.597656 232.164062 L 79.597656 232.15625 C 80.203125 228.984375 80.925781 226.15625 81.757812 223.675781 C 82.074219 222.742188 81.570312 221.734375 80.640625 221.417969 C 80.453125 221.355469 80.265625 221.328125 80.078125 221.324219 Z M 80.078125 221.324219 " fill-opacity="1" fill-rule="nonzero"/><g clip-path="url(#8f3a8487d1)"><path fill="#ffffff" d="M 62.996094 220.84375 C 62.601562 220.839844 62.199219 220.972656 61.867188 221.242188 C 59.105469 223.488281 57.003906 227.15625 55.5625 232.246094 C 53.78125 238.03125 53.089844 243.320312 53.484375 248.113281 C 53.90625 253.894531 54.8125 258.246094 56.203125 261.164062 L 56.207031 261.171875 C 58.765625 266.507812 61.421875 269.882812 64.171875 271.296875 C 64.429688 271.429688 64.707031 271.492188 64.976562 271.496094 C 65.625 271.5 66.253906 271.144531 66.570312 270.527344 C 67.019531 269.652344 66.675781 268.578125 65.800781 268.128906 C 63.761719 267.078125 61.632812 264.25 59.417969 259.636719 C 58.222656 257.117188 57.425781 253.183594 57.035156 247.835938 L 57.035156 247.820312 C 56.675781 243.472656 57.324219 238.617188 58.980469 233.257812 L 58.992188 233.21875 C 60.226562 228.851562 61.933594 225.78125 64.113281 224.007812 C 64.875 223.386719 64.992188 222.265625 64.371094 221.5 C 64.019531 221.070312 63.511719 220.84375 62.996094 220.84375 Z M 62.996094 220.84375 " fill-opacity="1" fill-rule="nonzero"/></g></svg>