<svg xmlns="http://www.w3.org/2000/svg" xmlns:xlink="http://www.w3.org/1999/xlink" width="2800" zoomAndPan="magnify" viewBox="0 0 2100 974.999993" height="1300" preserveAspectRatio="xMidYMid meet" version="1.0"><defs><clipPath id="c4ce4aa2f2"><path d="M 1850 791 L 2100 791 L 2100 975 L 1850 975 Z M 1850 791 " clip-rule="nonzero"/></clipPath><clipPath id="de35696bc6"><path d="M 1894.964844 736.375 L 2117.828125 852.378906 L 2031.257812 1018.695312 L 1808.390625 902.691406 Z M 1894.964844 736.375 " clip-rule="nonzero"/></clipPath><clipPath id="87ea819973"><path d="M 1894.964844 736.375 L 2117.828125 852.378906 L 2031.257812 1018.695312 L 1808.390625 902.691406 Z M 1894.964844 736.375 " clip-rule="nonzero"/></clipPath><clipPath id="3d482a730e"><path d="M 1894.964844 736.375 L 2117.828125 852.378906 L 2031.257812 1018.695312 L 1808.390625 902.691406 Z M 1894.964844 736.375 " clip-rule="nonzero"/></clipPath><clipPath id="225922d8ea"><path d="M 190 99 L 317.539062 99 L 317.539062 166.542969 L 190 166.542969 Z M 190 99 " clip-rule="nonzero"/></clipPath><clipPath id="a7be7c2c7d"><path d="M 156 110 L 205 110 L 205 166.542969 L 156 166.542969 Z M 156 110 " clip-rule="nonzero"/></clipPath><clipPath id="8fbf42cfaa"><path d="M 224 28.542969 L 288 28.542969 L 288 118 L 224 118 Z M 224 28.542969 " clip-rule="nonzero"/></clipPath><clipPath id="f5437a4c88"><path d="M 157 105 L 218 105 L 218 166.542969 L 157 166.542969 Z M 157 105 " clip-rule="nonzero"/></clipPath><clipPath id="819d9b4609"><path d="M 190 129 L 209 129 L 209 166.542969 L 190 166.542969 Z M 190 129 " clip-rule="nonzero"/></clipPath><clipPath id="5b8fe1f53b"><path d="M 122.539062 74 L 223 74 L 223 126 L 122.539062 126 Z M 122.539062 74 " clip-rule="nonzero"/></clipPath></defs><rect x="-210" width="2520" fill="#ffffff" y="-97.499999" height="1169.999992" fill-opacity="1"/><rect x="-210" width="2520" fill="#ffffff" y="-97.499999" height="1169.999992" fill-opacity="1"/><rect x="-210" width="2520" fill="#ffffff" y="-97.499999" height="1169.999992" fill-opacity="1"/><g clip-path="url(#c4ce4aa2f2)"><g clip-path="url(#de35696bc6)"><g clip-path="url(#87ea819973)"><g clip-path="url(#3d482a730e)"><path fill="#000000" d="M 1952.648438 977.78125 C 1945.046875 973.824219 1938.582031 968.273438 1934.074219 961.765625 C 1920.339844 959.402344 1907.074219 951.351562 1897.015625 938.9375 C 1887.84375 927.609375 1881.324219 913.191406 1877.011719 894.71875 C 1873.167969 878.152344 1871.71875 861.171875 1872.664062 844.1875 L 1872.777344 842.375 C 1872.828125 841.671875 1872.882812 840.972656 1872.851562 840.230469 C 1869.691406 839.519531 1866.570312 838.726562 1863.578125 837.6875 C 1860.585938 836.652344 1856.734375 835.0625 1854.0625 832.214844 C 1851.183594 829.15625 1850.097656 825.054688 1851.390625 821.773438 C 1852.167969 819.683594 1853.84375 818.058594 1856.128906 817.0625 C 1858.828125 815.867188 1862.003906 815.960938 1864.621094 817.117188 C 1868.835938 818.996094 1872.101562 823.503906 1873.285156 829.21875 C 1874.011719 832.613281 1873.953125 836.121094 1873.8125 839.582031 C 1882.359375 841.328125 1891.460938 842.007812 1900.933594 842.777344 C 1918.515625 844.128906 1936.761719 845.40625 1954.019531 853.976562 L 1970.125 862.359375 L 2000.765625 864.78125 L 2039.363281 839.9375 C 2036.675781 840.304688 2034.066406 841.132812 2031.082031 842.074219 C 2019.597656 845.769531 1992 851.277344 1990.386719 851.578125 L 1974.613281 860.324219 C 1974.445312 860.445312 1974.160156 860.402344 1973.957031 860.191406 C 1973.835938 860.023438 1973.882812 859.734375 1974.089844 859.53125 L 1986.613281 850.449219 L 1977.101562 844.769531 C 1976.855469 844.640625 1976.777344 844.390625 1976.90625 844.144531 L 1990.796875 812.46875 L 1974.765625 843.863281 C 1974.722656 843.945312 1974.554688 844.066406 1974.433594 844.105469 C 1974.308594 844.144531 1974.144531 844.0625 1974.0625 844.019531 C 1956.535156 831.773438 1924.089844 809.269531 1918.828125 805.800781 C 1919.667969 809.980469 1925.113281 829.460938 1928.933594 842.683594 C 1929.011719 842.933594 1928.882812 843.179688 1928.632812 843.257812 C 1928.386719 843.335938 1928.140625 843.207031 1928.0625 842.960938 L 1911.308594 799.285156 C 1911.1875 799.121094 1911.273438 798.957031 1911.441406 798.835938 C 1911.609375 798.714844 1911.730469 798.675781 1911.894531 798.761719 L 1957.855469 817.066406 C 1958.019531 817.148438 1958.101562 817.191406 1958.097656 817.398438 C 1958.136719 817.523438 1958.050781 817.6875 1958.007812 817.769531 L 1953.546875 823.144531 L 1999.851562 791.28125 C 2000.015625 791.160156 2000.222656 791.164062 2000.304688 791.207031 C 2000.46875 791.289062 2000.589844 791.457031 2000.503906 791.621094 L 2001.101562 842.175781 L 2004.472656 830.511719 C 2004.519531 830.222656 2004.765625 830.144531 2005.054688 830.191406 L 2041.078125 838.640625 C 2042.023438 838.617188 2043.054688 838.632812 2044.167969 838.691406 C 2049.191406 839.226562 2054.007812 842.148438 2057.472656 846.867188 C 2060.457031 850.914062 2062.234375 855.6875 2064.011719 860.253906 C 2064.601562 861.914062 2065.277344 863.617188 2065.992188 865.238281 C 2069.324219 873.007812 2073.324219 877.898438 2078.320312 880.082031 C 2083.105469 882.261719 2088.1875 881.683594 2091.667969 880.789062 C 2095.847656 879.738281 2099.757812 877.820312 2104.292969 875.292969 C 2104.542969 875.214844 2104.832031 875.261719 2104.910156 875.511719 C 2104.988281 875.757812 2104.941406 876.046875 2104.691406 876.125 C 2100.113281 878.734375 2096.125 880.609375 2091.816406 881.699219 C 2088.257812 882.550781 2082.925781 883.207031 2077.894531 880.898438 C 2072.652344 878.589844 2068.449219 873.488281 2065.121094 865.511719 C 2064.40625 863.894531 2063.730469 862.191406 2063.140625 860.53125 C 2061.363281 855.964844 2059.625 851.316406 2056.679688 847.390625 C 2053.417969 842.882812 2048.765625 840.042969 2044.03125 839.554688 C 2043.042969 839.457031 2042.011719 839.441406 2041.0625 839.46875 L 2001.085938 865.367188 C 2000.960938 865.40625 2000.917969 865.488281 2000.835938 865.445312 L 1969.992188 863.015625 C 1969.910156 862.972656 1969.910156 862.972656 1969.828125 862.929688 L 1953.722656 854.546875 C 1936.628906 846.066406 1918.507812 844.746094 1901.003906 843.4375 C 1891.570312 842.792969 1882.511719 842.03125 1873.964844 840.289062 C 1873.914062 840.988281 1873.902344 841.605469 1873.847656 842.308594 L 1873.738281 844.121094 C 1872.835938 861.023438 1874.324219 877.925781 1878.132812 894.367188 C 1882.402344 912.710938 1888.882812 927.007812 1897.890625 938.25 C 1907.589844 950.164062 1920.28125 958.121094 1933.433594 960.601562 C 1931.304688 957.304688 1929.589844 953.8125 1928.496094 950.125 C 1927.085938 945.644531 1926.902344 941.804688 1927.824219 938.4375 C 1928.96875 934.246094 1932.238281 930.953125 1935.921875 930.269531 C 1937.78125 929.886719 1939.957031 930.5 1941.875 931.808594 C 1943.789062 933.117188 1944.621094 935.113281 1945.058594 936.066406 C 1945.179688 936.234375 1945.175781 936.441406 1945.257812 936.484375 C 1945.589844 936.449219 1946.382812 935.925781 1946.714844 935.683594 C 1947.050781 935.441406 1947.339844 935.277344 1947.632812 935.117188 C 1948.792969 934.683594 1949.914062 934.328125 1951.234375 934.183594 C 1955.039062 933.667969 1959.015625 935.011719 1961.769531 937.902344 C 1964.527344 940.792969 1965.78125 944.566406 1965.140625 948.394531 C 1963.257812 959.792969 1949.804688 962.882812 1938.894531 962.089844 C 1937.78125 962.03125 1936.710938 961.890625 1935.558594 961.707031 C 1941.445312 969.761719 1950.242188 976.214844 1960.492188 979.886719 C 1973.238281 984.335938 1988.160156 984.820312 2005 981.414062 C 2005.246094 981.335938 2005.449219 981.546875 2005.527344 981.792969 C 2005.605469 982.042969 2005.398438 982.246094 2005.148438 982.324219 C 1988.183594 985.769531 1973.058594 985.28125 1960.144531 980.746094 C 1957.394531 980.042969 1954.9375 978.972656 1952.648438 977.78125 Z M 1940.015625 931.984375 C 1938.625 931.261719 1937.105469 930.992188 1935.820312 931.257812 C 1932.46875 931.90625 1929.53125 934.957031 1928.480469 938.777344 C 1927.640625 941.980469 1927.828125 945.617188 1929.199219 949.96875 C 1930.414062 953.828125 1932.25 957.488281 1934.542969 960.863281 C 1935.898438 961.050781 1937.257812 961.238281 1938.65625 961.34375 C 1949.160156 962.128906 1962.15625 959.117188 1963.984375 948.417969 C 1964.582031 944.878906 1963.402344 941.351562 1960.851562 938.671875 C 1958.296875 935.988281 1954.609375 934.691406 1951.09375 935.257812 C 1949.976562 935.402344 1948.777344 935.714844 1947.738281 936.109375 C 1947.613281 936.148438 1947.28125 936.390625 1946.988281 936.550781 C 1945.90625 937.238281 1945.15625 937.679688 1944.542969 937.460938 C 1944.296875 937.335938 1944.136719 937.042969 1943.898438 936.503906 C 1943.460938 935.546875 1942.707031 933.800781 1940.953125 932.578125 C 1940.75 932.367188 1940.421875 932.199219 1940.015625 931.984375 Z M 1945.050781 936.6875 Z M 1864.8125 818.148438 C 1864.648438 818.066406 1864.402344 817.9375 1864.238281 817.851562 C 1861.863281 816.824219 1858.976562 816.777344 1856.445312 817.851562 C 1854.410156 818.769531 1852.941406 820.191406 1852.167969 822.074219 C 1850.914062 825.480469 1852.542969 829.34375 1854.6875 831.605469 C 1857.242188 834.289062 1860.929688 835.789062 1863.839844 836.785156 C 1866.75 837.78125 1869.746094 838.613281 1872.828125 839.277344 C 1873.007812 835.941406 1872.980469 832.597656 1872.292969 829.328125 C 1871.347656 824.152344 1868.488281 820.066406 1864.8125 818.148438 Z M 1912.535156 799.925781 L 1925.34375 832.808594 C 1917.441406 804.871094 1917.863281 804.464844 1918.070312 804.261719 C 1918.238281 804.140625 1918.363281 804.101562 1918.570312 804.105469 C 1920.285156 805 1964.226562 835.570312 1974.210938 842.535156 L 1997.191406 797.386719 C 1997.320312 797.140625 1997.570312 797.0625 1997.8125 797.191406 C 1997.976562 797.277344 1998.136719 797.566406 1998.007812 797.8125 L 1977.859375 843.707031 L 1987.660156 849.640625 C 1987.820312 849.722656 1987.859375 849.847656 1987.898438 849.972656 C 1987.9375 850.097656 1987.855469 850.261719 1987.6875 850.382812 L 1980.550781 855.507812 L 1989.871094 850.375 C 1989.871094 850.375 1989.996094 850.335938 1989.996094 850.335938 C 1990.246094 850.257812 2018.957031 844.605469 2030.648438 840.910156 C 2033.382812 840.046875 2035.746094 839.300781 2038.269531 838.84375 L 2005.203125 831.101562 L 2001.089844 845.394531 C 2001.003906 845.558594 2000.792969 845.761719 2000.589844 845.757812 C 2000.382812 845.753906 2000.179688 845.546875 2000.183594 845.339844 L 1999.625 792.515625 L 1951.359375 825.75 C 1951.191406 825.871094 1950.902344 825.828125 1950.785156 825.660156 C 1950.664062 825.492188 1950.585938 825.242188 1950.792969 825.039062 L 1956.9375 817.628906 Z M 1912.535156 799.925781 " fill-opacity="1" fill-rule="nonzero"/></g></g></g></g><g clip-path="url(#225922d8ea)"><path stroke-linecap="butt" transform="matrix(0.239795, 0, 0, 0.239958, 124.370891, 28.806407)" fill="none" stroke-linejoin="miter" d="M 309.965819 454.466379 L 377.12924 513.151712 L 795.748111 569.720792 L 547.636039 354.30248 L 467.017128 326.644677 " stroke="#000000" stroke-width="6" stroke-opacity="1" stroke-miterlimit="4"/></g><g clip-path="url(#a7be7c2c7d)"><path stroke-linecap="butt" transform="matrix(0.239795, 0, 0, 0.239958, 124.370891, 28.806407)" fill="none" stroke-linejoin="miter" d="M 167.135627 373.153414 L 295.125683 540.728121 L 300.778293 527.998043 " stroke="#000000" stroke-width="6" stroke-opacity="1" stroke-miterlimit="4"/></g><g clip-path="url(#8fbf42cfaa)"><path stroke-linecap="butt" transform="matrix(0.239795, 0, 0, 0.239958, 124.370891, 28.806407)" fill="none" stroke-linejoin="miter" d="M 451.395075 313.75181 L 647.265311 0.497479 L 500.004255 334.637603 " stroke="#000000" stroke-width="6" stroke-opacity="1" stroke-miterlimit="4"/></g><path stroke-linecap="butt" transform="matrix(0.239795, 0, 0, 0.239958, 124.370891, 28.806407)" fill="none" stroke-linejoin="miter" d="M 310.992085 452.398962 L 382.50492 281.894058 L 466.007151 323.893548 Z M 310.992085 452.398962 " stroke="#000000" stroke-width="6" stroke-opacity="1" stroke-miterlimit="4"/><path stroke-linecap="butt" transform="matrix(0.239795, 0, 0, 0.239958, 124.370891, 28.806407)" fill="none" stroke-linejoin="miter" d="M 319.006735 426.906249 L 178.994703 342.402625 L 116.995192 438.399132 " stroke="#000000" stroke-width="6" stroke-opacity="1" stroke-miterlimit="4"/><g clip-path="url(#f5437a4c88)"><path stroke-linecap="butt" transform="matrix(0.239795, 0, 0, 0.239958, 124.370891, 28.806407)" fill="none" stroke-linejoin="miter" d="M 171.501331 355.393165 L 319.495433 548.900115 L 354.502514 493.893807 " stroke="#000000" stroke-width="6" stroke-opacity="1" stroke-miterlimit="4"/></g><path stroke-linecap="butt" transform="matrix(0.239795, 0, 0, 0.239958, 124.370891, 28.806407)" fill="none" stroke-linejoin="miter" d="M 177.00733 342.90727 L 149.493622 347.400239 L 107.498158 428.892271 L 110.495506 445.399047 L 118.005169 436.901476 " stroke="#000000" stroke-width="6" stroke-opacity="1" stroke-miterlimit="4"/><path stroke-linecap="butt" transform="matrix(0.239795, 0, 0, 0.239958, 124.370891, 28.806407)" fill="none" stroke-linejoin="miter" d="M 166.500319 371.899941 L 116.001506 439.896789 " stroke="#000000" stroke-width="6" stroke-opacity="1" stroke-miterlimit="4"/><g clip-path="url(#819d9b4609)"><path stroke-linecap="butt" transform="matrix(0.239795, 0, 0, 0.239958, 124.370891, 28.806407)" fill="none" stroke-linejoin="miter" d="M 310.992085 454.401264 L 317.003072 544.895512 " stroke="#000000" stroke-width="6" stroke-opacity="1" stroke-miterlimit="4"/></g><path stroke-linecap="butt" transform="matrix(0.239795, 0, 0, 0.239958, 124.370891, 28.806407)" fill="none" stroke-linejoin="miter" d="M 381.494944 283.896359 L 374.50656 282.903348 L 293.496689 410.904118 " stroke="#000000" stroke-width="6" stroke-opacity="1" stroke-miterlimit="4"/><path stroke-linecap="butt" transform="matrix(0.239795, 0, 0, 0.239958, 124.370891, 28.806407)" fill="none" stroke-linejoin="miter" d="M 212.503109 433.906164 L 191.505377 432.392229 L 154.999622 391.906674 " stroke="#000000" stroke-width="6" stroke-opacity="1" stroke-miterlimit="4"/><g clip-path="url(#5b8fe1f53b)"><path stroke-linecap="butt" transform="matrix(0.239795, 0, 0, 0.239958, 124.370891, 28.806407)" fill="none" stroke-linejoin="miter" d="M 134.995576 370.402285 L 0.505833 223.892438 L 366.491909 278.394101 L 376.005234 282.903348 " stroke="#000000" stroke-width="6" stroke-opacity="1" stroke-miterlimit="4"/></g></svg>